<?xml version="1.0" standalone="no"?>
<!DOCTYPE svg PUBLIC "-//W3C//DTD SVG 20010904//EN"
 "http://www.w3.org/TR/2001/REC-SVG-20010904/DTD/svg10.dtd">
<svg version="1.0" xmlns="http://www.w3.org/2000/svg"
 width="512.000000pt" height="512.000000pt" viewBox="0 0 512.000000 512.000000"
 preserveAspectRatio="xMidYMid meet">

<g transform="translate(0.000000,512.000000) scale(0.100000,-0.100000)"
fill="#000000" stroke="none">
<path d="M2468 4310 c-313 -38 -580 -272 -659 -579 -28 -105 -27 -268 0 -376
89 -346 396 -585 751 -585 354 0 661 240 751 585 28 110 28 271 -1 379 -99
373 -462 621 -842 576z"/>
<path d="M2380 2404 c-261 -47 -411 -105 -603 -230 -127 -83 -316 -270 -400
-396 -148 -222 -235 -467 -255 -719 -11 -143 5 -190 79 -234 34 -20 49 -20
1354 -17 1281 4 1321 4 1360 23 62 30 79 61 84 152 11 253 -108 600 -290 844
-213 285 -516 481 -862 558 -70 16 -408 30 -467 19z"/>
</g>
</svg>
